<?xml version="1.0" standalone="no"?>
<!DOCTYPE svg PUBLIC "-//W3C//DTD SVG 20010904//EN"
 "http://www.w3.org/TR/2001/REC-SVG-20010904/DTD/svg10.dtd">
<svg version="1.0" xmlns="http://www.w3.org/2000/svg"
 width="512.000000pt" height="512.000000pt" viewBox="0 0 512.000000 512.000000"
 preserveAspectRatio="xMidYMid meet">

<g transform="translate(0.000000,512.000000) scale(0.100000,-0.100000)"
fill="#000000" stroke="none">
<path d="M1600 4320 l0 -160 -160 0 -160 0 0 -480 0 -480 -160 0 -160 0 0
-160 0 -160 -160 0 -160 0 0 -640 0 -640 160 0 160 0 0 -160 0 -160 160 0 160
0 0 -320 0 -320 480 0 480 0 0 160 0 160 160 0 160 0 0 -160 0 -160 640 0 640
0 0 160 0 160 160 0 160 0 0 160 0 160 160 0 160 0 0 480 0 480 160 0 160 0 0
160 0 160 -160 0 -160 0 0 160 0 160 -160 0 -160 0 0 -160 0 -160 -160 0 -160
0 0 160 0 160 -480 0 -480 0 0 640 0 640 -160 0 -160 0 0 160 0 160 -160 0
-160 0 0 -160 0 -160 -160 0 -160 0 0 160 0 160 -160 0 -160 0 0 -160z m320
-640 l0 -480 160 0 160 0 0 480 0 480 160 0 160 0 0 -640 0 -640 160 0 160 0
0 -160 0 -160 480 0 480 0 0 -160 0 -160 160 0 160 0 0 160 0 160 160 0 160 0
0 -160 0 -160 -160 0 -160 0 0 -480 0 -480 -160 0 -160 0 0 -160 0 -160 -480
0 -480 0 0 160 0 160 -320 0 -320 0 0 -160 0 -160 -320 0 -320 0 0 160 0 160
160 0 160 0 0 160 0 160 -480 0 -480 0 0 640 0 640 160 0 160 0 0 160 0 160
160 0 160 0 0 480 0 480 160 0 160 0 0 -480z"/>
<path d="M1600 2240 l0 -320 160 0 160 0 0 320 0 320 -160 0 -160 0 0 -320z"/>
<path d="M2880 1440 l0 -160 320 0 320 0 0 160 0 160 -320 0 -320 0 0 -160z"/>
</g>
</svg>
